<?xml version="1.0" standalone="no"?>
<!DOCTYPE svg PUBLIC "-//W3C//DTD SVG 20010904//EN"
 "http://www.w3.org/TR/2001/REC-SVG-20010904/DTD/svg10.dtd">
<svg version="1.0" xmlns="http://www.w3.org/2000/svg"
 width="300.000000pt" height="154.000000pt" viewBox="0 0 300.000000 154.000000"
 preserveAspectRatio="xMidYMid meet">
<metadata>
Created by potrace 1.10, written by Peter Selinger 2001-2011
</metadata>
<g transform="translate(0.000000,154.000000) scale(0.100000,-0.100000)"
fill="#000000" stroke="none">
<path d="M80 1361 l-35 -19 3 -201 3 -201 109 0 110 0 0 89 c0 67 -4 92 -15
101 -14 12 -14 15 1 32 15 16 19 17 34 3 14 -13 73 -15 409 -15 l393 0 41 36
c95 80 223 124 367 124 147 0 251 -34 367 -121 l52 -39 382 0 c338 0 384 2
400 16 17 15 19 15 35 0 12 -13 14 -20 5 -29 -6 -6 -11 -47 -11 -102 l0 -90
104 0 104 0 6 45 c3 25 6 115 7 200 l2 155 -44 17 c-41 16 -150 17 -1419 17
-1319 0 -1376 -1 -1410 -18z m1220 1 c0 -5 -20 -9 -45 -10 -25 0 -45 4 -45 9
0 5 20 9 45 9 25 0 45 -4 45 -8z m145 -2 c-3 -5 -34 -9 -68 -8 l-62 1 60 7
c33 4 64 7 68 8 5 1 5 -2 2 -8z m229 1 c3 -5 -15 -8 -39 -7 -25 0 -45 4 -45 9
0 10 78 9 84 -2z m271 -1 c-7 -12 -175 -10 -175 2 0 4 41 8 91 8 59 0 88 -4
84 -10z m110 0 c4 -7 -8 -8 -37 -4 -57 9 -61 14 -10 14 22 0 44 -5 47 -10z
m105 1 c0 -10 -76 -9 -86 2 -4 4 14 7 39 7 26 0 47 -4 47 -9z m-915 -30 l50
-6 -33 -15 c-17 -8 -32 -18 -32 -22 0 -5 -9 -8 -20 -8 -11 0 -20 -4 -20 -9 0
-8 -23 -25 -110 -78 -34 -21 -44 -21 -401 -22 -316 -1 -371 2 -398 15 -18 9
-35 13 -38 10 -4 -3 0 -6 7 -6 10 0 10 -4 -2 -17 -20 -23 -30 -63 -14 -57 8 3
12 -19 14 -76 l2 -80 -79 0 -79 0 2 41 c1 22 0 42 -3 44 -3 2 -4 34 -1 72 5
64 7 68 30 71 53 6 69 13 76 35 18 53 -10 97 -63 97 -20 0 -32 4 -28 10 7 11
1057 13 1140 1z m1657 -9 c13 -13 14 -140 4 -302 l-3 -55 -77 -3 -76 -3 0 76
c0 43 5 84 13 96 10 17 9 22 -7 34 -10 7 -15 18 -12 23 3 5 -8 9 -23 8 -16 -1
-29 -5 -28 -11 1 -6 -129 -11 -370 -13 l-372 -2 -57 40 c-32 22 -67 40 -78 40
-16 0 -18 3 -7 9 17 11 -1 23 -23 15 -11 -4 -16 -1 -16 10 0 10 -9 16 -23 16
-12 0 -27 8 -33 18 -10 16 20 17 582 17 475 0 596 -3 606 -13z m-2722 -67 l0
-45 -44 0 c-41 0 -44 2 -50 31 -11 57 -10 59 44 59 l50 0 0 -45z"/>
<path d="M90 1281 c0 -17 22 -24 31 -10 6 11 11 11 21 1 16 -16 28 -15 28 3 0
11 -11 15 -40 15 -22 0 -40 -4 -40 -9z"/>
<path d="M1676 1261 c27 -10 66 -26 85 -35 27 -14 30 -14 15 -1 -22 17 -120
55 -139 54 -7 0 11 -9 39 -18z"/>
<path d="M1476 1188 l6 -63 -69 -17 c-37 -9 -77 -20 -88 -23 -16 -5 -25 4 -48
45 -29 52 -33 55 -55 41 -11 -6 -6 -20 20 -61 l34 -52 -60 -58 -60 -58 54 0
c44 0 60 6 96 33 63 49 132 68 218 63 75 -5 154 -37 189 -76 14 -16 31 -20 72
-20 l54 1 -26 34 c-14 18 -40 43 -57 55 -17 12 -33 23 -35 24 -2 2 11 29 29
60 25 45 29 59 18 65 -21 13 -22 12 -53 -46 -22 -40 -34 -53 -45 -49 -38 16
-105 34 -127 34 -22 0 -23 4 -23 65 0 63 -1 65 -25 65 -25 0 -25 -1 -19 -62z
m81 -103 c17 0 35 -4 39 -8 4 -4 14 -7 21 -7 22 0 103 -39 103 -50 0 -6 5 -10
10 -10 6 0 19 -9 30 -20 11 -11 20 -24 20 -30 0 -16 -20 -12 -26 5 -4 8 -10
15 -16 15 -5 0 -21 11 -36 25 -15 14 -31 25 -37 25 -5 0 -23 7 -39 15 -15 8
-32 13 -36 10 -5 -3 -11 -1 -14 4 -7 10 -141 10 -151 -1 -4 -4 -13 -4 -21 -1
-8 3 -14 1 -14 -5 0 -5 -15 -13 -34 -16 -19 -4 -37 -13 -40 -21 -3 -8 -12 -15
-21 -15 -8 0 -15 -4 -15 -10 0 -5 -7 -10 -15 -10 -8 0 -15 -7 -15 -15 0 -8 -7
-15 -15 -15 -8 0 -15 7 -15 15 0 8 7 15 15 15 8 0 15 4 15 8 0 14 84 70 116
78 16 4 33 9 38 12 5 3 27 7 49 9 22 2 43 5 45 8 3 2 10 1 16 -2 6 -4 25 -7
43 -8z"/>
<path d="M1405 1219 c-22 -5 -59 -16 -82 -25 l-43 -16 16 -31 c9 -18 18 -33
19 -35 1 -1 21 5 45 13 23 8 53 15 66 15 22 0 24 4 24 45 0 25 -1 45 -2 44 -2
-1 -21 -5 -43 -10z"/>
<path d="M1540 1189 c0 -34 3 -39 28 -45 15 -3 40 -10 56 -15 43 -14 50 -12
69 20 9 16 17 31 17 33 0 6 -68 26 -124 37 l-46 8 0 -38z"/>
<path d="M1825 1188 c66 -51 109 -95 146 -150 22 -32 42 -58 45 -58 6 0 0 11
-40 70 -34 51 -65 84 -116 121 -46 33 -74 47 -35 17z"/>
<path d="M1067 1100 c-40 -45 -77 -101 -77 -119 0 -3 15 17 34 44 18 28 48 65
66 83 17 19 30 36 27 38 -2 3 -25 -18 -50 -46z"/>
<path d="M291 1117 c-7 -19 -8 -77 0 -97 0 -3 1 -13 0 -22 -1 -10 3 -18 9 -18
6 0 8 6 5 13 -4 6 0 4 8 -6 9 -10 21 -15 31 -11 18 7 22 -11 4 -22 -6 -4 -9
-3 -5 2 3 5 -7 9 -22 9 -15 1 -28 -4 -28 -10 0 -8 99 -11 329 -11 229 0 328 3
328 11 0 5 11 27 25 47 15 23 22 43 18 54 -5 13 -3 16 10 11 9 -3 16 -3 14 1
-1 4 13 21 32 38 l34 31 -116 -1 c-65 0 -111 -3 -104 -8 6 -4 20 -5 30 -2 9 3
17 0 17 -6 0 -6 5 -8 12 -4 7 4 8 3 4 -4 -4 -7 -2 -12 3 -12 6 0 11 -8 11 -17
0 -16 -3 -15 -18 3 -9 12 -27 21 -39 19 -12 -1 -19 3 -16 8 3 6 1 7 -6 3 -6
-4 -13 -1 -16 6 -8 20 -212 20 -220 0 -3 -7 -10 -10 -16 -6 -8 5 -8 8 0 14 7
3 -2 7 -19 7 -17 0 -27 -3 -21 -6 13 -9 -20 -45 -44 -49 -20 -2 -20 -2 0 10
11 7 21 20 22 28 3 13 -11 16 -77 16 -58 0 -81 -4 -85 -14 -3 -7 -10 -10 -16
-6 -8 5 -8 8 0 14 7 3 -2 7 -19 7 -31 0 -39 -10 -18 -23 7 -4 8 -3 4 4 -5 8
-2 10 9 6 19 -7 14 -14 -11 -18 -10 -2 -20 -9 -22 -16 -3 -8 0 -10 8 -5 9 5
11 4 6 -3 -4 -7 -2 -12 5 -12 16 0 3 -13 -16 -16 -9 -1 -11 4 -8 14 4 9 2 13
-4 9 -5 -3 -10 0 -10 8 0 8 3 15 7 15 3 0 6 9 7 20 2 27 -5 25 -16 -3z m136 1
c-2 -7 -13 -12 -23 -11 -10 1 -13 0 -6 -3 18 -8 15 -27 -6 -40 -14 -9 -22 -9
-35 1 -21 15 -22 31 -3 38 7 3 13 0 12 -6 0 -7 4 -12 9 -12 6 0 10 6 10 13 0
13 23 32 38 32 5 0 7 -6 4 -12z m60 -5 c8 -10 11 -12 7 -4 -5 9 -3 12 5 7 6
-4 10 -15 9 -24 -2 -10 3 -17 13 -16 9 1 16 -6 15 -15 0 -9 4 -15 11 -14 6 1
13 -4 16 -11 6 -15 -9 -16 -31 -2 -7 4 -19 3 -26 -3 -13 -11 -26 -5 -26 11 0
5 4 7 9 3 5 -3 13 0 17 6 4 7 -4 22 -19 35 -15 13 -27 28 -27 34 0 15 11 12
27 -7z m183 6 c0 -5 5 -7 12 -3 6 4 8 3 4 -4 -3 -6 3 -14 15 -17 16 -6 18 -9
8 -15 -7 -5 -17 -6 -23 -3 -5 4 -7 -1 -3 -10 3 -9 1 -19 -5 -23 -7 -5 -8 -2
-3 6 5 8 4 11 -3 6 -6 -3 -13 -2 -17 4 -3 5 -1 10 5 10 6 0 8 5 4 12 -5 7 -3
8 6 3 8 -5 11 -3 8 5 -2 7 -15 14 -29 16 -13 1 -18 0 -11 -2 6 -3 12 -11 12
-17 0 -15 -35 -38 -44 -30 -10 11 -7 23 7 21 6 -2 12 5 12 15 0 10 7 22 15 27
20 13 30 12 30 -1z m100 2 c0 -4 -16 -25 -35 -45 -19 -21 -35 -45 -35 -54 0
-13 -2 -14 -12 -3 -10 11 -10 14 0 18 6 3 12 11 12 18 0 7 7 15 15 19 8 3 12
12 9 20 -3 8 0 17 7 22 8 5 10 3 5 -7 -4 -8 -1 -6 6 4 14 18 28 23 28 8z m63
-4 c16 -11 16 -14 3 -32 -13 -17 -15 -18 -16 -3 0 9 6 18 13 21 6 3 2 4 -10 4
-14 -1 -21 -7 -20 -19 1 -10 5 -18 9 -18 4 0 8 -8 8 -17 -1 -16 -2 -16 -15 1
-8 11 -24 21 -35 23 -19 3 -19 2 -3 -17 9 -10 20 -17 25 -14 10 6 11 -10 1
-19 -3 -4 -12 -2 -20 4 -9 8 -17 8 -26 0 -8 -6 -18 -7 -22 -3 -5 4 -5 1 0 -7
5 -10 4 -12 -3 -7 -9 5 -9 13 -2 27 6 10 13 19 16 19 3 0 2 -5 -2 -12 -5 -7
-3 -8 5 -4 7 5 10 14 7 22 -3 9 4 19 19 26 13 6 22 15 18 21 -3 6 -1 7 5 3 7
-4 12 -2 12 3 0 15 12 14 33 -2z m180 -7 c4 -14 -2 -24 -16 -32 -12 -6 -24
-10 -27 -9 -2 1 -6 -3 -9 -10 -2 -7 1 -9 9 -4 9 5 11 4 6 -3 -4 -7 -2 -12 4
-12 6 0 0 -15 -14 -33 -15 -19 -26 -39 -26 -44 0 -6 -14 -9 -30 -8 -35 3 -47
11 -35 23 4 4 10 1 13 -7 4 -11 6 -11 13 0 7 11 9 11 9 1 0 -10 3 -10 15 2 8
8 15 19 15 25 0 6 5 11 11 11 5 0 7 5 3 12 -5 7 -3 8 6 3 8 -5 11 -3 8 6 -3 8
-11 13 -17 12 -6 -2 -11 4 -11 12 0 8 5 15 11 15 5 0 8 4 5 9 -3 4 2 17 10 27
9 11 13 12 9 4 -3 -9 -1 -8 7 3 17 22 24 22 31 -3z m-567 1 c-3 -4 6 -13 20
-19 22 -11 23 -14 13 -34 -9 -16 -14 -19 -17 -9 -2 7 2 18 9 23 11 8 10 9 -4
4 -10 -3 -16 -2 -13 2 3 5 -1 9 -9 9 -10 0 -11 -5 -5 -17 12 -22 4 -29 -26
-24 -23 4 -23 4 -7 -15 9 -11 20 -18 24 -16 4 3 9 -1 12 -9 6 -15 -9 -16 -31
-2 -9 5 -20 2 -30 -9 -10 -10 -11 -14 -4 -10 11 6 12 3 3 -14 -7 -11 -14 -21
-17 -21 -3 0 -2 5 1 10 4 6 2 16 -4 23 -10 13 0 39 15 38 5 0 9 6 9 15 0 9 11
22 25 29 14 8 21 14 17 15 -8 0 10 40 19 40 3 0 3 -4 0 -9z m157 3 c3 -4 1
-16 -5 -28 -11 -20 -11 -20 -18 -1 -11 28 5 47 23 29z m294 -31 c10 -12 12
-13 8 -3 -4 8 0 6 9 -4 8 -10 13 -23 10 -27 -3 -5 0 -9 5 -9 6 0 11 -8 11 -17
0 -12 -8 -7 -29 17 -29 35 -29 35 -50 16 -22 -20 -29 -42 -9 -30 7 5 9 2 4 -7
-4 -8 0 -5 8 5 16 20 16 20 31 0 8 -10 15 -14 15 -9 0 6 4 3 9 -5 14 -20 5
-29 -24 -24 -16 3 -27 -2 -34 -14 -7 -14 -22 -17 -77 -17 -51 1 -69 4 -72 15
-3 12 -1 12 5 2 7 -9 13 -6 23 13 7 14 17 25 22 25 12 0 10 -14 -4 -28 -9 -9
-9 -12 0 -12 7 0 12 4 12 9 0 10 25 9 36 -1 10 -10 35 3 27 15 -4 6 -1 7 7 2
8 -5 11 -3 8 5 -6 19 -48 23 -55 5 -5 -14 -7 -13 -19 2 -13 17 -15 17 -29 -1
-8 -11 -15 -15 -15 -9 0 19 29 36 43 26 14 -12 60 14 65 37 2 8 8 20 14 25 8
7 9 5 4 -5 -4 -8 -1 -7 6 3 7 9 15 17 17 17 2 0 10 -8 18 -17z m-331 -2 c-3
-4 6 -13 19 -19 17 -8 23 -16 18 -28 -5 -13 -3 -15 7 -9 9 5 11 4 6 -4 -4 -6
-12 -9 -17 -5 -6 3 -13 -4 -16 -16 -6 -22 -7 -22 -20 -5 -10 14 -13 15 -13 4
-1 -10 -3 -9 -11 4 -5 9 -15 17 -22 17 -8 0 -7 -4 2 -9 12 -8 12 -12 2 -25 -9
-11 -10 -16 -2 -16 6 0 11 4 11 8 0 5 7 9 15 9 8 0 15 -4 15 -9 0 -5 9 -6 20
-3 13 4 20 2 20 -6 0 -7 3 -9 6 -6 4 4 1 15 -7 24 -12 16 -12 17 2 6 9 -7 19
-9 24 -5 4 4 3 -2 -3 -13 -8 -16 -21 -19 -77 -20 -61 0 -69 2 -78 23 -8 18 -8
26 4 34 11 8 11 9 -3 4 -10 -3 -20 -1 -24 5 -10 17 3 21 25 9 16 -8 19 -15 12
-28 -14 -28 -1 -47 16 -23 8 12 12 25 8 30 -8 13 12 24 28 14 22 -14 47 -13
47 1 0 8 3 16 8 19 4 2 2 2 -5 1 -7 -2 -15 1 -18 7 -4 5 -11 6 -17 3 -6 -4 -6
2 1 15 7 11 14 21 17 21 3 0 3 -4 0 -9z m-203 -28 c3 -5 -3 -22 -13 -40 l-17
-32 -21 29 c-18 23 -19 29 -7 34 13 5 20 -5 16 -26 0 -5 4 -8 10 -8 5 0 9 8 8
18 -2 25 0 32 10 32 6 0 12 -3 14 -7z m289 -16 c-1 -8 3 -19 9 -23 8 -4 9 -3
5 4 -4 7 -5 12 -2 12 3 0 10 -9 16 -19 7 -14 7 -22 -2 -27 -7 -5 -8 -3 -3 6 5
8 4 11 -3 6 -6 -3 -13 -2 -17 4 -3 5 -12 10 -18 10 -7 0 -6 -4 3 -10 12 -7 10
-9 -8 -7 -24 1 -29 12 -11 22 6 4 8 13 5 20 -2 7 -2 16 2 19 10 11 27 0 24
-17z m72 -43 c3 -8 2 -12 -4 -9 -6 4 -14 -2 -18 -12 -8 -21 -72 -28 -72 -7 0
18 30 26 36 9 5 -12 8 -12 20 0 8 7 14 18 14 24 0 17 17 13 24 -5z m-310 -1
c4 -5 12 -9 17 -9 5 -1 14 -2 19 -3 6 0 10 -7 10 -14 0 -8 -13 -13 -35 -13
-22 0 -35 5 -35 13 0 7 5 13 10 13 6 0 10 -5 10 -12 0 -6 3 -8 7 -4 5 4 -1 14
-11 22 -11 8 -15 14 -10 14 6 0 14 -3 18 -7z"/>
<path d="M1772 1106 l-20 -33 49 -47 48 -46 35 17 35 16 -26 31 c-14 17 -43
46 -63 63 l-38 33 -20 -34z"/>
<path d="M1984 1065 c28 -38 54 -71 58 -73 4 -2 5 -9 2 -17 -5 -13 10 -28 34
-31 6 -1 12 2 12 7 0 6 6 7 13 2 17 -10 137 -10 144 0 3 5 9 3 14 -4 8 -12 10
-12 18 0 5 7 11 9 14 4 7 -10 127 -10 145 0 7 5 12 3 12 -3 0 -7 5 -8 13 -3
17 11 30 11 45 0 8 -6 12 -5 12 2 0 7 5 9 13 4 15 -9 137 -11 143 -1 3 4 12 5
22 2 15 -5 15 -4 2 6 -11 9 -12 13 -2 17 6 2 10 9 6 14 -3 5 -2 15 3 22 13 20
11 81 -4 102 -10 15 -25 20 -59 21 -31 0 -43 -3 -40 -12 5 -14 -22 -12 -32 2
-4 6 -53 10 -109 10 -83 0 -104 -3 -108 -15 -6 -14 -8 -14 -18 -1 -17 23 -207
23 -224 0 -10 -13 -12 -13 -18 0 -4 13 -23 16 -84 16 l-78 0 51 -71z m-14 57
c0 -5 7 -9 15 -9 8 0 15 4 15 9 0 4 5 8 10 8 6 0 10 -7 10 -15 0 -8 -5 -14
-11 -12 -6 1 -14 -4 -17 -12 -3 -9 0 -11 8 -6 9 5 11 4 6 -3 -4 -7 -2 -12 3
-12 6 0 11 -7 11 -15 0 -8 4 -15 10 -15 5 0 7 8 3 18 -4 11 0 10 11 -6 10 -12
14 -28 10 -35 -4 -6 -4 -9 1 -5 4 4 14 3 22 -3 10 -9 13 -8 13 2 0 9 3 10 11
2 17 -17 1 -35 -20 -24 -13 8 -17 5 -18 -12 -2 -17 0 -18 7 -7 5 8 12 11 17 7
9 -10 -18 -28 -30 -20 -4 3 -6 11 -3 19 3 8 -7 29 -22 47 -52 60 -83 107 -73
107 6 0 11 -4 11 -8z m115 -6 c16 -12 22 -12 43 2 19 12 25 13 31 3 10 -16 22
-16 32 0 4 8 11 10 15 6 5 -4 -3 -18 -15 -30 -22 -21 -23 -21 -17 -2 6 20 6
20 -9 1 -14 -19 -21 -11 -16 17 1 4 -8 3 -19 -3 -11 -6 -20 -16 -21 -23 0 -9
-2 -9 -6 1 -2 7 -14 17 -25 23 -13 7 -18 7 -14 1 7 -12 -20 -10 -31 3 -4 4 -2
5 5 1 6 -4 12 -2 12 3 0 15 12 14 35 -3z m240 0 c16 -12 22 -12 42 1 24 16 40
12 28 -6 -3 -6 -11 -8 -17 -5 -6 4 -17 -1 -25 -11 -7 -11 -13 -14 -13 -7 0 6
-10 16 -21 23 -13 6 -19 7 -15 1 7 -12 -20 -10 -31 3 -4 4 -2 5 5 1 6 -4 12
-2 12 3 0 15 12 14 35 -3z m125 6 c0 -14 -37 -44 -42 -35 -3 4 -3 1 -1 -7 3
-12 2 -12 -8 -3 -10 10 -9 15 1 27 7 9 16 13 21 10 5 -3 9 0 9 5 0 6 5 11 10
11 6 0 10 -4 10 -8z m18 -17 c0 -13 -4 -22 -9 -19 -4 2 -17 -4 -29 -16 -11
-11 -20 -16 -20 -12 0 5 11 18 25 30 14 12 25 26 25 32 0 5 2 10 4 10 2 0 4
-11 4 -25z m32 14 c0 -6 -5 -19 -10 -30 -7 -13 -7 -19 0 -19 5 0 10 -8 10 -17
-1 -16 -2 -16 -15 1 -11 14 -15 16 -15 5 0 -12 -2 -12 -10 1 -5 8 -10 10 -10
5 0 -6 5 -16 11 -22 6 -6 8 -16 4 -23 -5 -7 -12 -2 -21 16 -16 30 -14 34 13
38 10 2 19 9 19 17 1 8 2 20 3 27 1 15 21 16 21 1z m65 -3 c20 -14 26 -16 45
-16 6 0 10 -8 10 -17 -1 -16 -2 -16 -15 1 -11 15 -15 16 -16 5 0 -10 -2 -10
-6 -1 -2 7 -14 17 -25 23 -11 6 -18 7 -15 2 3 -5 2 -14 -2 -21 -4 -8 -11 -5
-20 9 -7 12 -8 18 -2 14 6 -3 11 -1 11 4 0 15 12 14 35 -3z m117 -26 c13 0 10
18 -4 23 -7 2 -10 8 -5 12 13 15 35 -28 33 -64 -1 -20 -9 -52 -18 -72 -17 -39
-48 -49 -48 -15 1 21 1 21 15 2 14 -19 21 -11 16 18 -1 4 4 14 10 22 9 11 8
18 -1 29 -7 9 -10 19 -6 22 4 4 11 1 16 -7 7 -12 9 -10 8 5 -1 12 -9 21 -19
21 -10 0 -16 -3 -14 -6 2 -3 0 -12 -5 -20 -7 -12 -9 -10 -8 5 0 11 0 25 -2 30
-1 6 -2 17 -1 25 2 10 6 8 13 -7 6 -13 15 -23 20 -23z m-432 -1 c0 -4 -9 -6
-20 -4 -12 2 -30 -5 -40 -15 -11 -11 -20 -15 -20 -8 0 6 -7 3 -15 -8 -13 -17
-14 -17 -15 -1 0 15 11 21 32 18 3 0 17 10 30 24 16 17 26 21 35 13 7 -6 13
-14 13 -19z m-194 -6 c-5 -15 -3 -14 9 2 13 16 17 17 25 6 11 -19 40 -23 33
-5 -3 8 0 14 6 14 12 0 14 -20 3 -35 -10 -15 -31 -13 -41 4 -6 9 -11 10 -15 2
-4 -6 -1 -11 6 -11 9 0 9 -3 -2 -10 -10 -6 -11 -10 -2 -10 6 0 12 -4 12 -10 0
-19 -16 -10 -32 18 -14 24 -15 52 -1 52 3 0 2 -8 -1 -17z m240 0 c-5 -15 -3
-14 10 2 15 20 15 20 26 1 11 -19 11 -19 24 -1 17 23 28 14 19 -16 -6 -17 -9
-19 -16 -8 -7 12 -9 11 -9 -1 -1 -12 -3 -12 -14 3 -12 16 -14 16 -27 1 -8 -10
-13 -19 -11 -21 1 -1 2 -9 2 -15 0 -10 -2 -10 -8 0 -5 7 -7 23 -6 35 1 12 3
25 3 30 1 4 4 7 7 7 3 0 3 -8 0 -17z m229 0 c6 -17 8 -17 21 2 13 17 16 18 24
5 5 -8 15 -15 21 -15 7 0 14 -7 16 -15 4 -12 3 -12 -5 -2 -7 11 -10 11 -15 -3
-5 -13 -11 -14 -27 -5 -11 6 -20 7 -20 3 0 -4 -5 -1 -11 7 -9 12 -10 11 -5 -5
6 -20 6 -20 -9 -1 -17 22 -20 46 -6 46 5 0 12 -8 16 -17z m-272 -12 c4 -1 7
-9 7 -18 -1 -16 -2 -16 -15 1 -11 15 -15 16 -16 5 0 -10 -2 -10 -6 -2 -3 10
-8 9 -20 -3 -8 -8 -12 -18 -9 -22 4 -3 11 0 15 7 6 9 11 10 15 2 12 -19 -3
-32 -25 -21 -10 6 -19 7 -19 3 0 -4 -5 -1 -11 7 -9 13 -10 12 -5 -3 4 -11 2
-16 -5 -12 -12 8 -7 30 8 30 5 0 17 7 26 17 9 9 25 15 34 13 10 -2 21 -4 26
-4z m151 -16 c3 -8 11 -14 17 -13 6 2 13 -2 16 -8 2 -6 -3 -11 -12 -11 -8 0
-15 5 -15 11 0 6 -5 4 -11 -4 -9 -13 -10 -12 -5 3 3 11 2 16 -4 12 -6 -3 -10
-14 -10 -23 -1 -15 -2 -15 -15 2 -8 11 -15 14 -15 8 0 -7 -7 -5 -18 6 -21 19
-21 29 0 16 22 -14 39 -13 45 2 7 18 19 18 27 -1z m236 7 c0 -4 -6 -14 -12
-21 -11 -11 -10 -12 2 -5 35 20 62 6 40 -21 -6 -8 -9 -19 -5 -25 3 -5 4 -10 1
-10 -3 0 -10 10 -17 21 -9 17 -8 20 2 14 8 -5 10 -4 5 3 -5 9 -13 9 -27 2 -15
-9 -21 -7 -26 5 -5 14 -8 14 -15 3 -8 -10 -9 -10 -5 2 2 8 10 14 16 12 6 -1
14 5 17 13 6 16 24 21 24 7z m-501 -27 c3 -4 -2 -20 -12 -37 -10 -17 -16 -32
-14 -34 2 -2 10 7 17 21 7 14 17 25 22 25 12 0 10 -14 -4 -29 -10 -11 -10 -13
0 -7 7 4 12 2 12 -6 0 -9 3 -9 10 2 9 13 10 13 10 0 0 -13 1 -13 11 0 9 13 10
13 7 0 -3 -9 -19 -14 -47 -15 -46 -1 -59 8 -41 30 9 10 8 20 -5 39 -16 24 -16
25 5 21 13 -2 25 -7 29 -10z m361 -26 c0 -4 -4 -11 -10 -14 -5 -3 -10 0 -10 7
0 9 -3 9 -10 -2 -6 -9 -10 -10 -10 -3 0 6 5 15 11 18 6 4 8 14 5 24 -5 12 -2
11 9 -3 8 -11 15 -23 15 -27z m74 15 c3 -9 10 -13 15 -10 11 7 44 -41 36 -53
-8 -14 -38 -6 -43 10 -3 11 -2 12 6 1 8 -11 10 -11 15 1 3 7 2 19 -2 26 -6 8
-12 3 -22 -16 -14 -29 -40 -38 -45 -15 -1 7 0 8 3 2 3 -7 11 -3 20 9 12 18 12
24 -1 43 -10 13 -16 17 -16 9 0 -8 -3 -12 -6 -8 -3 3 -3 10 0 16 8 13 33 4 40
-15z m-289 -1 c6 -17 8 -17 21 2 13 17 16 18 24 5 5 -8 15 -15 21 -15 7 0 13
-6 15 -13 1 -7 0 -8 -3 -2 -3 7 -10 4 -19 -7 -12 -16 -13 -16 -14 -1 0 9 -4
20 -10 23 -6 4 -7 -1 -4 -12 5 -15 4 -16 -5 -3 -9 13 -11 13 -11 1 0 -11 -4
-10 -13 4 -11 14 -16 15 -22 5 -5 -9 -4 -11 3 -6 7 4 12 2 12 -3 0 -10 -13
-15 -31 -13 -4 1 -6 -6 -5 -15 2 -22 -31 -25 -37 -2 -3 12 -12 17 -26 14 -18
-3 -20 -1 -11 15 13 24 30 18 53 -18 10 -15 16 -20 14 -12 -4 15 22 70 34 70
4 0 10 -8 14 -17z m239 2 c3 -8 11 -14 18 -13 7 2 13 -4 13 -12 0 -10 -10 -15
-28 -15 -15 0 -32 -7 -37 -15 -9 -13 -10 -13 -10 0 0 13 -1 13 -10 0 -8 -13
-11 -12 -24 5 -9 11 -16 25 -16 30 0 6 -5 3 -10 -5 -9 -13 -10 -13 -10 0 0 13
-1 13 -10 0 -5 -8 -12 -11 -17 -7 -11 11 17 26 40 21 11 -2 24 -9 28 -16 12
-19 36 -18 55 3 10 11 12 19 6 19 -7 0 -12 5 -12 10 0 15 17 12 24 -5z m-195
-50 c3 -3 -1 -10 -9 -15 -10 -7 -19 -5 -26 6 -9 12 -13 12 -17 2 -2 -7 -8 -9
-13 -5 -5 4 -2 12 5 17 14 8 49 5 60 -5z m106 -5 c0 -15 -82 -23 -91 -8 -10
16 6 24 48 23 30 -1 43 -5 43 -15z"/>
<path d="M1145 1080 c-30 -30 -52 -45 -56 -39 -5 8 -8 8 -13 0 -4 -6 -2 -11 4
-11 7 0 10 -7 6 -15 -3 -10 5 -20 26 -31 l30 -16 48 47 48 48 -16 33 c-10 18
-19 34 -22 34 -3 0 -28 -22 -55 -50z"/>
<path d="M1455 1021 c-3 -6 -14 -8 -25 -6 -11 2 -22 -1 -25 -6 -4 -5 -11 -6
-17 -3 -7 5 -8 2 -2 -7 5 -8 9 -23 9 -34 0 -19 7 -20 137 -20 87 0 134 3 128
9 -6 6 -5 15 3 25 8 9 8 12 1 8 -7 -4 -17 0 -24 8 -7 8 -16 13 -20 10 -5 -3
-11 -1 -14 4 -4 5 -17 8 -31 6 -14 -1 -28 2 -31 6 -7 12 -81 11 -89 0z m90
-11 c0 -1 14 -3 30 -5 17 -1 31 -4 33 -5 1 -1 6 -3 11 -4 13 -1 25 -14 27 -29
1 -9 -29 -12 -121 -12 l-122 0 2 25 c1 18 7 25 22 25 12 0 25 3 29 7 6 7 89 4
89 -2z"/>
<path d="M1494 985 c0 -17 6 -21 33 -21 17 0 30 2 28 5 -3 2 0 10 7 18 6 8 7
13 2 12 -5 -1 -11 0 -14 1 -3 1 -16 3 -30 4 -21 2 -26 -2 -26 -19z"/>
<path d="M1414 982 c3 -20 32 -24 47 -6 13 16 14 15 -22 18 -19 2 -26 -2 -25
-12z"/>
<path d="M1586 991 c-7 -10 14 -27 32 -27 13 1 17 21 5 21 -5 0 -13 4 -20 8
-6 4 -14 3 -17 -2z"/>
<path d="M1896 977 l-50 -32 31 -3 c18 -2 46 4 63 13 26 13 29 19 20 35 -6 11
-12 20 -13 19 -1 0 -24 -15 -51 -32z"/>
<path d="M1350 985 c-7 -8 -16 -13 -20 -10 -4 2 -14 -3 -23 -13 -15 -16 -13
-18 28 -18 28 0 41 4 36 11 -5 5 -7 18 -6 28 4 21 1 21 -15 2z"/>
<path d="M1033 974 c-8 -22 14 -34 62 -34 l40 0 -40 25 c-48 29 -54 30 -62 9z"/>
<path d="M54 914 c3 -9 6 -104 6 -212 l0 -197 1432 2 c787 2 1433 5 1435 7 2
2 7 96 10 210 l6 206 -1447 0 c-1316 0 -1448 -1 -1442 -16z m508 -11 c-18 -7
-42 -57 -42 -88 0 -14 7 -39 15 -54 12 -25 12 -31 0 -47 -21 -28 -18 -61 10
-102 25 -37 25 -37 4 -44 -13 -5 -19 -14 -15 -23 8 -23 -21 -26 -233 -23
l-195 3 -4 52 c-2 28 2 61 8 72 7 14 7 21 0 21 -5 0 -10 7 -10 15 0 31 18 13
28 -27 8 -32 22 -51 53 -75 38 -29 50 -33 105 -33 54 0 65 3 78 22 9 12 16 18
16 13 0 -5 12 8 27 30 24 34 28 51 30 113 0 41 -3 70 -8 66 -5 -3 -13 6 -19
21 -5 14 -17 28 -25 30 -48 15 -49 16 -37 23 6 5 -28 8 -76 8 -48 1 -81 -1
-74 -3 16 -6 5 -23 -14 -23 -19 0 -53 -39 -54 -60 -1 -8 -7 -28 -14 -45 -11
-27 -12 -22 -14 60 -1 58 -6 92 -14 97 -7 4 100 7 237 7 138 0 244 -3 237 -6z
m846 0 c-16 -4 -18 -17 -18 -96 0 -89 -10 -130 -27 -113 -4 4 -10 54 -13 112
l-5 104 40 -1 c22 -1 32 -3 23 -6z m425 0 c-7 -2 -13 -11 -13 -19 0 -20 -13
-17 -33 6 -16 19 -16 20 21 19 20 0 31 -3 25 -6z m1073 -2 c-3 -5 -6 -81 -7
-170 0 -89 -5 -164 -10 -167 -6 -3 -6 -11 1 -19 10 -12 -16 -15 -162 -17 -246
-4 -313 -1 -298 17 7 9 8 15 1 20 -6 3 -8 24 -4 50 4 36 2 46 -11 51 -21 8
-20 20 3 50 20 26 18 62 -5 71 -26 10 -15 40 22 58 30 14 35 21 31 41 l-4 24
224 0 c126 0 222 -4 219 -9z m-2217 -16 c47 -24 57 -75 16 -75 -15 0 -25 6
-25 15 0 26 -36 37 -60 17 -30 -24 -17 -48 36 -68 81 -31 105 -88 60 -141 -20
-23 -32 -28 -69 -28 -51 0 -80 20 -96 66 -10 28 -9 29 20 29 22 0 29 -5 29
-20 0 -31 36 -45 66 -25 42 27 23 62 -48 84 -47 15 -62 34 -62 78 0 26 7 42
28 59 31 27 65 30 105 9z m249 -12 c3 -22 0 -23 -62 -23 l-66 0 0 -40 0 -39
63 -3 c54 -3 62 -5 62 -23 0 -18 -7 -20 -63 -20 l-62 0 0 -37 0 -38 65 0 c63
0 65 -1 65 -25 0 -25 -1 -25 -90 -25 l-90 0 0 150 0 151 88 -3 c82 -3 87 -4
90 -25z m232 5 c67 -35 101 -121 70 -179 -9 -15 -6 -24 10 -42 12 -12 26 -30
31 -39 17 -31 -45 -24 -65 7 -23 35 -70 57 -123 57 -25 0 -47 -3 -50 -6 -11
-11 52 -27 82 -22 19 4 38 1 50 -8 19 -14 18 -15 -20 -31 -65 -28 -130 -7
-177 56 -50 66 -22 170 55 208 54 27 82 26 137 -1z m141 -81 c-3 -115 10 -147
59 -147 52 0 60 19 60 141 l0 109 26 0 26 0 -4 -119 c-3 -110 -5 -122 -27
-145 -30 -31 -71 -41 -115 -26 -53 17 -62 41 -68 167 -3 62 -3 115 0 118 4 3
15 5 26 3 17 -3 19 -11 17 -101z m359 78 c0 -24 -3 -25 -59 -25 l-59 0 -4 -40
-4 -40 63 0 c61 0 63 -1 63 -26 0 -25 -1 -25 -61 -23 l-62 3 -1 -37 -1 -37 63
0 c60 0 62 -1 62 -25 0 -25 -1 -25 -85 -25 l-85 0 0 150 0 150 85 0 c84 0 85
0 85 -25z m119 -62 c27 -49 55 -95 60 -103 8 -11 10 14 9 85 l-1 100 28 3 c22
3 27 0 21 -13 -3 -9 -6 -77 -6 -152 0 -134 0 -134 -22 -131 -17 2 -38 28 -78
95 l-55 93 -3 -95 c-3 -94 -3 -95 -27 -95 l-25 0 0 150 0 150 24 0 c20 0 33
-15 75 -87z m351 68 c19 -10 43 -32 53 -50 l19 -31 -27 0 c-15 0 -40 11 -57
25 -81 68 -191 -22 -147 -119 17 -37 72 -60 111 -47 18 6 39 18 49 27 9 8 30
14 45 12 l28 -3 -35 -36 c-19 -21 -52 -42 -76 -49 -36 -11 -49 -11 -88 4 -63
25 -90 66 -90 138 0 66 22 103 76 130 44 23 95 23 139 -1z m270 -6 c0 -24 -2
-25 -65 -25 l-65 0 0 -40 0 -40 66 0 c62 0 65 -1 62 -22 -3 -21 -8 -23 -65
-21 l-63 1 0 -39 0 -39 60 0 c56 0 60 -2 60 -22 0 -22 -4 -23 -85 -23 l-85 0
0 148 0 147 90 0 c89 0 90 0 90 -25z m46 14 c10 -17 -13 -36 -27 -22 -12 12
-4 33 11 33 5 0 12 -5 16 -11z m-2106 -51 c51 -35 72 -69 72 -120 1 -57 -24
-100 -75 -128 -66 -37 -139 -17 -191 54 -28 37 -27 116 0 154 45 61 135 79
194 40z m1783 -57 c49 -23 61 -41 27 -41 -11 0 -20 -4 -20 -8 0 -9 -45 -33
-70 -38 -45 -8 -74 62 -40 96 23 23 36 22 103 -9z m-333 -160 c14 -28 13 -31
-14 -31 -19 0 -22 4 -18 25 5 30 18 32 32 6z m153 -56 c-3 -8 0 -15 6 -15 6 0
11 10 12 23 1 21 1 21 9 -3 5 -15 8 -18 9 -9 1 18 31 35 31 18 0 -6 5 -7 10
-4 6 3 10 -2 10 -13 0 -10 -6 -19 -14 -19 -8 0 -12 6 -9 14 3 7 1 13 -5 13 -5
0 -12 -8 -14 -18 -3 -10 -16 -18 -31 -20 -24 -2 -27 2 -27 29 0 17 4 28 10 24
5 -3 7 -12 3 -20z m201 0 c-9 -31 -24 -42 -24 -19 0 12 -7 21 -15 21 -11 0
-12 -4 -5 -11 15 -15 12 -26 -5 -20 -8 4 -15 16 -15 29 0 19 5 22 35 21 30 -1
34 -4 29 -21z m44 -5 c-1 -16 -5 -30 -10 -30 -12 0 -21 27 -14 45 10 26 25 16
24 -15z m152 20 c14 -6 36 -4 42 5 4 6 8 -5 8 -24 0 -33 -1 -34 -15 -15 -14
19 -14 19 -15 -1 -1 -19 -2 -19 -12 3 -11 22 -38 31 -38 12 0 -5 8 -10 17 -10
10 0 13 -3 8 -9 -16 -15 -75 -1 -76 18 -1 14 -2 13 -6 -1 -2 -10 -8 -18 -13
-18 -5 0 -15 -3 -24 -6 -12 -5 -16 0 -16 23 l0 28 68 -1 c37 -1 69 -3 72 -4z
m-440 -30 c0 -7 -233 -10 -680 -10 -447 0 -680 3 -680 10 0 7 233 10 680 10
447 0 680 -3 680 -10z"/>
<path d="M2631 869 c10 -6 6 -10 -12 -18 -15 -5 -29 -17 -33 -26 -3 -9 -11
-13 -18 -9 -7 5 -9 2 -5 -9 3 -9 1 -17 -5 -19 -13 -5 -23 -88 -14 -123 4 -15
11 -23 18 -19 6 4 9 1 6 -6 -4 -14 27 -52 38 -47 4 1 11 -8 15 -21 8 -22 13
-23 86 -20 54 2 78 7 78 16 0 6 5 13 10 13 6 1 19 15 31 30 11 16 25 25 29 21
5 -4 5 -1 1 6 -4 7 -2 19 4 27 16 19 15 92 -1 111 -6 7 -9 21 -5 29 3 9 2 14
-3 11 -5 -3 -12 1 -15 9 -3 9 -18 20 -33 26 -20 7 -24 12 -14 18 7 5 -28 8
-79 8 -51 0 -86 -3 -79 -8z m156 -29 c46 -27 66 -72 61 -132 -14 -143 -211
-182 -272 -55 -21 46 -20 84 3 127 40 75 137 104 208 60z"/>
<path d="M2674 810 c-22 -9 -64 -56 -64 -71 0 -5 9 -4 20 3 16 10 23 10 37 -4
16 -16 16 -19 -2 -38 -17 -19 -19 -19 -37 -4 -16 15 -18 16 -18 1 0 -9 11 -28
24 -44 34 -40 108 -40 142 0 13 16 24 35 24 44 0 15 -2 14 -18 -1 -18 -15 -20
-15 -37 4 -17 19 -17 21 0 40 17 19 19 19 37 4 17 -16 18 -16 18 3 0 43 -79
83 -126 63z m61 -20 c22 -24 7 -48 -27 -44 -13 1 -26 3 -30 3 -15 2 -8 34 10
47 23 18 26 17 47 -6z m-15 -104 c0 -8 8 -17 18 -21 16 -6 16 -7 -1 -20 -20
-14 -54 -12 -70 4 -7 7 -5 13 6 17 9 3 17 12 17 20 0 8 7 14 15 14 8 0 15 -6
15 -14z"/>
<path d="M2692 788 c-20 -20 -14 -28 18 -28 28 0 30 2 20 20 -12 23 -21 25
-38 8z"/>
<path d="M2777 814 c-9 -10 21 -36 33 -29 8 5 7 11 -1 21 -12 15 -22 18 -32 8z"/>
<path d="M2809 748 c-4 -59 -2 -83 6 -81 5 1 12 11 17 22 5 15 3 21 -7 21 -8
0 -15 5 -15 10 0 6 6 10 14 10 9 0 12 7 9 20 -7 27 -23 25 -24 -2z"/>
<path d="M2751 726 c-8 -10 -8 -16 3 -25 10 -9 16 -8 26 3 12 15 6 36 -9 36
-5 0 -14 -6 -20 -14z"/>
<path d="M1065 841 c-35 -15 -58 -49 -59 -88 -1 -29 3 -37 14 -34 71 18 113
17 163 -4 14 -6 17 -1 17 30 0 29 -8 45 -34 71 -34 34 -61 41 -101 25z m56
-41 c31 -17 22 -30 -21 -30 -42 0 -52 12 -22 29 21 13 20 13 43 1z"/>
<path d="M244 805 c-34 -14 -49 -30 -59 -65 l-8 -25 22 19 c21 20 22 20 42 0
20 -20 20 -20 -1 -39 -19 -18 -21 -18 -41 1 -22 19 -22 19 -14 -6 8 -28 52
-70 74 -70 11 0 10 4 -3 13 -18 13 -18 15 -1 40 22 34 28 34 50 0 17 -25 17
-27 -4 -42 -23 -18 -15 -45 13 -39 25 5 19 23 -7 20 -15 -2 -11 2 13 15 88 45
72 161 -26 185 -12 3 -34 0 -50 -7z m71 -41 c0 -14 -8 -19 -33 -21 -40 -2 -52
19 -27 47 16 18 21 19 39 6 12 -7 21 -22 21 -32z m50 -35 c10 -30 -18 -57 -39
-39 -19 15 -20 32 -4 48 18 18 36 14 43 -9z"/>
<path d="M261 786 c-16 -19 -8 -33 18 -31 30 2 33 10 12 29 -16 14 -20 15 -30
2z"/>
<path d="M201 726 c-9 -10 -8 -16 3 -25 10 -9 16 -8 25 3 9 10 8 16 -3 25 -10
9 -16 8 -25 -3z"/>
<path d="M1803 492 c-13 -2 -23 -10 -23 -18 0 -8 -3 -14 -8 -14 -4 0 -21 -13
-38 -28 -33 -30 -93 -62 -116 -62 -8 0 -18 -3 -22 -7 -17 -17 -175 -17 -192 0
-4 4 -14 7 -22 7 -21 0 -86 32 -95 47 -4 7 -12 13 -17 13 -13 0 -50 37 -50 50
0 6 -12 10 -26 10 l-25 0 21 -31 c12 -16 39 -42 60 -55 l39 -26 -30 -49 c-26
-42 -33 -47 -49 -39 -23 12 -35 30 -21 30 5 0 13 -5 17 -11 4 -8 14 2 25 24
l19 36 -47 44 -47 45 -33 -16 c-18 -9 -33 -18 -33 -22 0 -3 20 -26 45 -50 24
-24 42 -47 39 -51 -5 -8 72 -69 88 -69 4 0 8 5 8 11 0 6 11 30 25 53 l25 43
53 -18 c28 -10 67 -18 85 -19 l33 0 -2 -62 c-3 -59 -1 -63 21 -66 23 -4 23 -3
16 61 l-6 64 42 7 c24 4 62 14 86 23 23 9 44 14 45 12 2 -2 16 -25 31 -51 15
-27 31 -48 37 -48 22 0 19 31 -10 76 l-29 48 31 25 c33 26 82 80 76 84 -2 2
-14 1 -26 -1z"/>
<path d="M1874 493 c1 -1 18 -13 39 -27 35 -24 37 -24 47 -6 15 27 14 28 -39
32 -27 1 -48 2 -47 1z"/>
<path d="M2046 491 c-4 -5 0 -11 6 -14 9 -3 3 -12 -14 -26 -16 -13 -28 -28
-28 -36 0 -7 -6 -16 -12 -19 -7 -2 -2 -3 11 -2 14 2 27 9 29 16 3 8 0 10 -9 5
-8 -5 -10 -4 -6 0 10 12 38 15 32 4 -4 -5 2 -6 12 -3 12 4 11 1 -4 -8 -24 -15
-30 -28 -15 -37 6 -4 3 -15 -8 -29 -11 -13 -21 -18 -25 -12 -3 5 -2 10 2 10
13 0 13 39 1 46 -7 5 -8 2 -3 -6 5 -9 4 -11 -3 -6 -15 9 -34 -2 -65 -40 l-26
-30 55 0 c30 0 54 3 54 8 0 10 23 6 31 -5 9 -12 40 3 33 17 -3 6 0 4 8 -4 13
-15 118 -24 118 -10 0 4 7 7 15 7 8 0 15 -3 15 -7 0 -8 98 -6 106 3 4 3 16 1
27 -4 11 -6 22 -7 26 -2 5 8 20 9 39 3 17 -5 88 -5 97 0 13 8 27 7 43 -3 6 -5
12 -4 12 2 0 8 20 8 40 1 13 -6 36 -5 45 2 6 3 19 0 29 -8 19 -13 19 -14 2
-33 -18 -20 -18 -20 -39 0 -20 18 -38 19 -394 19 l-372 0 -73 -49 c-216 -146
-501 -141 -701 12 l-47 37 -385 0 c-373 0 -384 -1 -398 -20 l-14 -20 -18 20
c-16 18 -17 22 -3 37 12 14 14 35 10 101 l-5 82 -106 0 -106 0 3 -197 3 -196
697 6 c383 4 1024 7 1423 7 l726 0 8 191 c4 105 5 191 3 193 -1 1 -51 0 -110
-2 l-108 -4 0 -86 c0 -50 -4 -81 -9 -74 -4 7 -6 33 -5 58 2 24 -1 44 -5 44 -5
0 -8 -11 -7 -25 4 -32 -47 -97 -57 -72 -3 9 -1 19 5 23 7 4 8 3 4 -4 -4 -7 -2
-12 3 -12 6 0 11 7 11 15 0 8 4 15 9 15 4 0 7 10 7 23 -3 26 12 60 22 53 4 -3
9 7 10 21 1 18 -2 24 -12 20 -8 -3 -17 -1 -20 6 -3 9 -5 8 -5 -1 -1 -10 -6
-10 -22 -1 -12 6 -24 7 -28 3 -9 -13 -31 -15 -31 -3 0 6 -5 7 -12 2 -19 -11
-37 -12 -44 -2 -3 5 -14 4 -27 -3 -12 -6 -24 -10 -27 -9 -3 2 -12 7 -21 12 -9
4 -20 5 -24 1 -10 -10 -29 -9 -36 1 -4 5 -15 4 -27 -2 -14 -7 -23 -8 -27 -1
-4 7 -14 6 -28 -2 -12 -6 -22 -11 -22 -11 0 0 -10 5 -21 11 -12 6 -24 8 -28 5
-10 -10 -148 -10 -168 -1 -9 4 -19 4 -22 -1z m306 -20 c3 9 6 8 11 -3 6 -17
-7 -18 -45 -3 -11 4 -18 3 -18 -5 0 -6 -5 -8 -12 -4 -7 4 -8 3 -4 -4 4 -7 5
-12 2 -12 -3 0 -10 9 -16 19 -8 17 -7 19 8 16 10 -2 25 1 33 6 9 6 18 3 25 -7
9 -11 13 -12 16 -3z m128 4 c8 2 21 4 29 6 7 2 16 -2 18 -10 4 -9 0 -11 -16
-6 -12 4 -21 2 -21 -4 0 -12 -22 -11 -31 2 -3 4 -12 5 -21 2 -14 -6 -18 -17
-19 -57 0 -21 -15 -32 -24 -18 -3 5 -2 10 3 10 15 0 10 29 -6 35 -8 3 -17 3
-20 0 -3 -3 0 -5 6 -5 7 0 12 -7 12 -15 0 -20 -16 -19 -24 1 -3 8 -10 13 -15
10 -5 -3 -11 0 -14 8 -4 9 0 13 11 11 9 -1 25 2 36 7 14 8 17 7 12 -4 -4 -7 3
-1 15 14 16 19 27 25 38 19 9 -5 23 -7 31 -6z m192 0 c15 3 16 0 8 -16 -6 -10
-13 -19 -16 -19 -3 0 -2 6 2 13 4 7 3 9 -2 4 -5 -5 -10 -18 -10 -30 -3 -46 -5
-53 -28 -69 -16 -12 -27 -13 -37 -6 -11 8 -9 9 6 4 19 -6 19 -5 3 8 -19 14
-24 36 -10 36 5 0 9 7 9 15 0 8 -4 15 -9 15 -5 0 1 13 13 30 16 21 26 27 38
21 9 -5 24 -7 33 -6z m-522 -9 c0 -6 4 -5 9 2 7 11 9 11 14 -1 6 -16 -9 -16
-45 -2 -11 4 -18 3 -18 -5 0 -6 -5 -8 -12 -4 -7 4 -8 3 -4 -4 4 -7 5 -12 2
-12 -3 0 -10 8 -15 18 -8 16 -5 18 30 18 21 0 39 -4 39 -10z m83 -33 c-4 -9
-10 -10 -25 -2 -11 6 -22 8 -26 5 -3 -3 0 -6 6 -6 7 0 12 -7 12 -15 0 -20 -16
-19 -24 1 -3 8 -10 13 -15 10 -5 -3 -11 1 -14 8 -4 10 0 13 14 11 11 -2 28 4
37 13 15 16 18 16 28 3 7 -8 10 -21 7 -28z m350 32 c7 -17 -8 -29 -25 -20 -7
4 -5 0 5 -8 18 -15 23 -37 9 -37 -5 0 -9 -7 -9 -15 0 -8 4 -15 9 -15 5 0 7 -4
3 -9 -3 -6 3 -14 12 -20 10 -5 14 -13 10 -17 -4 -4 -13 1 -21 11 -13 18 -14
18 -24 -1 -7 -14 -20 -20 -44 -19 -18 0 -32 4 -30 8 1 4 2 12 2 18 0 5 5 7 10
4 6 -3 13 1 16 9 3 9 10 16 15 16 15 0 10 -22 -8 -37 -16 -12 -15 -12 8 -2 20
8 26 18 24 35 -1 13 1 22 5 19 8 -5 6 32 -3 41 -4 4 -9 -1 -13 -10 -3 -9 -10
-16 -15 -16 -15 0 -10 22 9 37 15 12 14 12 -9 2 -25 -10 -36 -39 -16 -39 14 0
-1 -13 -18 -16 -7 -1 -11 4 -9 11 3 7 0 16 -7 21 -7 4 -10 3 -6 -3 3 -5 -4 -9
-16 -8 -12 1 -21 5 -19 8 1 4 6 17 11 29 6 16 10 18 16 9 4 -8 2 -17 -6 -22
-10 -6 -7 -8 9 -6 13 1 28 9 32 18 6 10 19 15 35 13 16 -1 28 3 32 12 7 18 19
18 26 -1z m302 9 c13 -5 14 -9 4 -15 -10 -6 -10 -11 -1 -22 7 -7 10 -16 8 -18
-2 -2 -7 -62 -10 -134 -4 -71 -8 -131 -11 -133 -2 -2 -252 -6 -556 -9 l-553
-4 18 20 c11 12 24 21 30 21 6 0 27 14 45 31 68 62 45 59 444 56 286 -1 367
-5 367 -14 0 -18 36 -16 55 3 13 14 15 30 11 83 -3 36 -3 83 1 103 l6 38 62 0
c35 0 71 -3 80 -6z m-2624 -18 c-7 -8 -8 -17 -3 -20 11 -7 7 -98 -7 -143 -7
-26 -7 -31 5 -26 8 3 14 -1 14 -11 0 -20 29 -21 57 -1 18 13 75 15 387 13 356
-3 365 -4 388 -24 13 -12 29 -19 36 -17 8 3 10 -1 5 -12 -5 -14 -2 -16 18 -11
13 3 18 3 11 0 -19 -9 -4 -24 25 -24 15 0 23 -3 20 -7 -4 -3 -2 -12 4 -19 9
-11 -87 -13 -544 -14 -524 0 -556 1 -561 18 -3 9 -8 84 -10 165 l-4 147 85 0
c72 0 84 -2 74 -14z m1880 -66 c8 1 2 8 -14 16 -23 13 -26 18 -16 35 10 20 11
19 28 -12 14 -27 25 -34 50 -35 23 -1 31 3 27 12 -3 8 0 13 6 11 6 -1 17 9 24
22 l12 23 12 -22 12 -23 19 24 c14 19 19 20 19 7 0 -9 -6 -19 -12 -22 -7 -3
-4 -4 6 -3 10 1 21 -4 24 -12 3 -10 -2 -11 -19 -6 -19 5 -21 4 -9 -4 8 -6 13
-11 10 -12 -3 0 -13 -2 -22 -4 -14 -2 -16 0 -8 14 6 13 5 18 -5 18 -8 0 -11
-5 -8 -10 3 -6 1 -7 -5 -3 -12 7 -38 -3 -44 -17 -2 -5 8 -14 21 -21 20 -11 21
-14 7 -19 -12 -5 -15 -3 -11 6 4 6 -5 -1 -19 -18 -20 -23 -26 -26 -26 -12 0 9
4 17 8 17 4 0 8 8 9 18 1 16 -6 18 -45 17 -60 -3 -59 -2 -59 -19 0 -8 12 -19
26 -25 23 -10 24 -10 9 2 -19 15 -24 37 -9 37 5 0 12 -7 15 -16 3 -8 10 -12
16 -9 9 6 13 -6 8 -22 -6 -16 -54 -8 -70 12 -17 20 -17 20 -26 -5 l-9 -24 -12
21 c-10 19 -8 24 10 34 12 6 19 7 16 2 -4 -5 0 -10 7 -10 7 0 12 8 11 18 -2
26 -13 35 -21 15 -8 -20 -24 -21 -24 -2 0 8 8 17 18 21 16 6 16 7 0 19 -10 7
-18 19 -18 25 0 7 15 -4 34 -23 18 -20 40 -36 47 -36z m129 -6 c0 -10 6 -14
15 -10 13 5 19 -4 17 -25 -1 -3 11 -11 26 -18 22 -9 24 -9 11 1 -38 32 -23 70
25 62 38 -6 36 -21 -3 -18 -37 2 -39 1 -23 -16 8 -11 19 -17 23 -15 4 3 10 -2
13 -11 3 -8 2 -12 -3 -9 -5 3 -12 2 -15 -3 -3 -6 -59 -9 -74 -3 -1 1 3 11 9
24 11 20 11 21 -4 8 -10 -7 -17 -21 -17 -29 0 -12 -3 -13 -12 -4 -9 9 -8 15 8
26 18 14 18 15 2 21 -19 8 -25 35 -8 35 6 0 10 -7 10 -16z m190 2 c0 -14 -27
-31 -43 -27 -5 1 -6 -2 -3 -7 3 -5 -5 -8 -16 -7 -12 1 -24 8 -26 15 -3 9 1 11
13 6 11 -4 23 0 32 11 10 12 12 13 8 3 -3 -9 -1 -8 7 3 15 21 28 22 28 3z m34
-21 c3 -8 0 -14 -6 -12 -6 1 -17 -9 -24 -22 -12 -23 -12 -23 -23 -3 -10 18 -8
23 16 36 16 8 29 15 29 16 1 0 4 -7 8 -15z m-490 -38 c15 -11 14 -13 -16 -11
-41 2 -40 2 -33 14 8 14 28 13 49 -3z"/>
<path d="M2624 471 c3 -5 0 -11 -7 -14 -14 -5 -16 -78 -1 -75 5 1 16 8 24 17
13 13 13 14 -1 9 -9 -4 -16 -1 -16 7 0 7 5 12 11 11 6 -2 8 -1 4 1 -12 7 -9
31 4 35 7 3 5 7 -6 11 -9 4 -15 3 -12 -2z"/>
<path d="M306 481 c-2 -3 -3 -44 -2 -91 l1 -85 92 -1 c82 0 91 2 90 18 -1 10
-5 18 -10 18 -4 0 -5 5 -1 12 9 14 35 -19 28 -36 -4 -10 18 -13 85 -12 80 0
89 2 88 18 -1 10 -5 18 -10 18 -4 0 -5 5 -1 12 9 14 35 -18 28 -36 -4 -10 33
-12 156 -12 139 0 160 2 155 15 -3 9 -3 12 1 8 4 -4 12 -2 19 3 8 7 12 5 12
-5 0 -8 -4 -12 -9 -9 -4 3 -8 1 -8 -4 0 -5 14 -9 31 -10 l31 -1 -23 22 c-29
27 -111 33 -107 8 2 -12 -7 -15 -39 -15 -24 -1 -43 4 -44 9 -1 16 -41 33 -69
29 -16 -3 -20 -1 -12 4 24 16 74 6 94 -19 11 -13 17 -19 15 -14 -3 6 3 11 13
11 10 0 16 -5 13 -10 -3 -5 -1 -6 5 -2 11 7 13 46 2 46 -4 0 -7 7 -7 15 0 8 4
12 8 9 11 -6 27 28 22 46 -4 13 -3 13 6 0 8 -11 11 -12 11 -2 0 31 -33 47 -95
48 -49 0 -62 -3 -61 -15 1 -18 -46 -21 -52 -3 -2 7 2 10 11 6 8 -3 17 -1 21 4
3 5 -33 9 -83 8 -71 0 -88 -3 -87 -15 1 -10 -8 -15 -24 -15 -16 0 -25 5 -24
15 1 11 -17 14 -88 15 -49 1 -88 -3 -88 -8 0 -5 10 -6 21 -3 16 5 20 3 16 -6
-2 -8 -11 -12 -18 -10 -8 2 -20 4 -27 4 -7 0 -11 6 -8 12 4 12 -72 18 -78 6z
m18 -61 c-2 -45 9 -58 31 -40 20 16 18 0 -1 -25 -11 -14 -18 -16 -21 -7 -3 6
-8 10 -12 8 -4 -3 -7 25 -7 60 -1 36 2 60 6 55 3 -6 5 -29 4 -51z m34 40 c10
-16 10 -24 0 -40 -19 -30 -25 -25 -25 20 0 45 6 50 25 20z m37 -6 c22 -3 30
-12 21 -21 -4 -4 -11 -1 -17 7 -7 12 -8 10 -6 -7 2 -11 9 -28 16 -37 8 -9 11
-20 7 -23 -4 -4 -11 -1 -16 7 -6 8 -10 11 -10 6 0 -5 -6 -3 -14 3 -10 8 -16 9
-21 1 -3 -5 -10 -10 -15 -10 -5 0 2 12 15 26 27 29 30 40 15 49 -5 3 -10 12
-10 18 0 8 4 7 9 -2 5 -8 17 -16 26 -17z m90 -52 c-9 -9 -35 32 -30 46 3 7 0
10 -6 7 -6 -4 -8 -14 -5 -22 3 -8 2 -12 -3 -9 -10 6 -6 -37 5 -55 5 -8 3 -10
-7 -5 -8 4 -4 -1 9 -12 22 -21 29 -42 13 -42 -5 0 -12 8 -16 18 -6 16 -7 16
-19 0 -7 -10 -16 -18 -20 -18 -13 0 -5 23 12 37 15 12 14 12 -10 2 -15 -7 -26
-17 -25 -22 1 -6 -13 -11 -31 -11 -17 0 -32 4 -32 9 0 5 12 9 27 10 14 0 28 6
31 14 3 9 0 11 -9 6 -8 -5 -11 -4 -6 1 5 5 20 9 34 9 32 0 40 17 18 39 -9 9
-12 16 -6 16 5 0 18 13 28 30 l17 30 18 -37 c10 -20 16 -39 13 -41z m29 29 c1
-25 -2 -38 -9 -35 -5 3 0 -3 13 -14 25 -23 28 -38 10 -45 -7 -3 -3 -4 10 -4
13 1 21 6 18 13 -3 7 2 11 9 10 18 -3 32 -16 17 -16 -7 0 -11 -5 -10 -12 2 -7
-10 -12 -28 -13 -28 -1 -31 2 -28 21 2 13 -1 26 -7 30 -8 5 -10 2 -5 -7 4 -8
1 -6 -8 5 -8 10 -20 15 -26 11 -15 -9 -30 13 -23 32 4 11 8 10 19 -4 10 -14
15 -15 25 -6 10 10 10 15 0 27 -10 11 -9 19 1 35 16 26 20 21 22 -28z m34 29
c10 -16 10 -24 0 -40 -19 -30 -25 -25 -25 20 0 45 6 50 25 20z m36 -35 c1 -7
8 -21 16 -30 12 -14 12 -18 -1 -27 -11 -8 -9 -8 6 -3 15 5 17 3 8 -6 -13 -13
-37 -3 -28 12 4 5 -1 19 -11 31 -12 17 -15 18 -10 5 4 -12 2 -16 -6 -11 -7 4
-8 3 -4 -5 4 -6 12 -9 17 -6 5 3 6 -1 3 -9 -4 -12 -11 -13 -28 -4 l-23 10 23
25 c26 28 29 39 14 48 -5 3 -10 11 -10 18 0 14 31 -29 34 -48z m91 -23 c-9 -9
-35 32 -30 48 3 9 -1 7 -10 -4 -18 -24 -20 -14 -3 14 12 18 14 17 30 -17 10
-20 16 -39 13 -41z m29 29 c1 -25 -2 -38 -9 -35 -5 3 0 -3 13 -14 25 -23 28
-38 10 -45 -7 -3 -3 -4 10 -4 14 1 21 6 17 15 -2 7 -1 11 4 8 5 -3 14 1 21 9
10 12 10 18 0 30 -20 24 -6 28 15 5 18 -20 18 -21 0 -34 -12 -9 -15 -15 -7
-20 7 -4 17 -4 22 -1 6 3 10 0 11 -7 0 -9 2 -10 5 -1 3 7 12 9 20 6 16 -6 19
-33 4 -33 -5 0 -10 4 -10 8 0 5 -7 9 -15 9 -8 0 -15 -4 -15 -9 0 -4 -4 -8 -10
-8 -5 0 -10 7 -10 15 0 8 -4 15 -10 15 -6 0 -9 -5 -7 -12 1 -7 -11 -12 -29
-13 -28 -1 -31 2 -28 21 2 13 -1 26 -7 30 -8 5 -10 2 -5 -7 4 -8 1 -6 -7 4 -9
11 -21 15 -32 10 -14 -5 -17 -3 -13 9 4 8 1 15 -8 15 -7 0 -10 -5 -7 -11 3 -6
-3 -2 -14 9 -11 11 -16 22 -10 24 5 2 3 7 -4 12 -7 4 -10 11 -6 16 5 4 12 1
17 -7 5 -8 14 -15 19 -15 6 0 17 -9 25 -20 11 -16 17 -17 27 -8 10 10 10 15 0
27 -10 11 -9 19 1 35 16 26 20 21 22 -28z m34 29 c7 -12 10 -26 6 -33 -5 -9
-3 -9 7 1 10 9 10 15 1 24 -7 7 -12 17 -12 23 0 5 10 -5 21 -22 12 -18 25 -34
30 -34 5 -1 13 -2 18 -3 16 -2 23 -14 16 -26 -4 -7 -16 -2 -32 15 -18 17 -29
22 -38 15 -6 -5 -15 -7 -18 -3 -4 3 -7 1 -7 -5 0 -7 -4 -12 -8 -12 -5 0 -9 18
-9 40 0 45 6 50 25 20z m126 -59 c-3 -3 -9 1 -14 9 -6 8 -10 11 -10 7 0 -5 -6
-5 -12 0 -7 4 -19 8 -26 9 -19 3 -27 13 -18 21 4 4 11 2 15 -5 5 -9 11 -5 21
13 l14 26 18 -37 c10 -21 15 -40 12 -43z m30 63 c4 -10 2 -13 -6 -8 -7 4 -8 3
-4 -5 4 -6 12 -9 17 -6 5 3 6 -1 3 -9 -3 -9 -11 -13 -16 -10 -6 4 -5 -4 2 -16
10 -18 10 -21 -2 -15 -7 3 -3 -2 10 -13 21 -19 30 -42 16 -42 -4 0 -13 8 -21
18 -10 11 -12 12 -8 2 4 -8 -1 -6 -9 4 -11 14 -13 23 -5 32 7 9 7 19 1 30 -7
12 -6 24 1 36 14 22 13 22 21 2z m51 -27 c-1 -12 -5 -20 -10 -19 -4 2 -11 -2
-16 -9 -16 -27 -18 -2 -2 34 17 37 31 34 28 -6z m-182 -50 c-2 -4 -3 -11 -3
-17 0 -6 -10 -5 -25 2 -17 7 -21 14 -14 19 14 8 45 5 42 -4z m-100 -30 c-3 -5
-12 -6 -22 -3 -14 5 -13 4 2 -8 18 -14 23 -36 8 -36 -5 0 -12 8 -16 18 -6 16
-7 16 -19 0 -15 -20 -26 -23 -26 -7 0 16 39 45 60 45 10 0 16 -4 13 -9z"/>
<path d="M1058 479 c-20 -11 -22 -18 -9 -37 6 -11 19 -7 56 17 l49 31 -40 0
c-21 0 -47 -5 -56 -11z"/>
<path d="M1247 473 c3 -7 11 -13 18 -13 7 0 15 -6 18 -13 4 -11 63 -47 87 -52
3 -1 14 -6 25 -11 26 -12 184 -11 210 0 11 5 22 10 25 11 3 2 15 6 28 10 12 4
22 11 22 16 0 5 7 9 15 9 9 0 18 7 21 15 4 8 12 15 19 15 7 0 15 7 19 15 8 21
-28 20 -45 -2 -8 -9 -41 -29 -74 -45 -100 -47 -243 -35 -320 26 -20 16 -24 24
-13 22 9 -1 26 -10 38 -21 11 -10 21 -15 21 -12 1 4 2 12 3 19 0 6 6 13 13 15
15 5 26 -14 13 -22 -20 -13 -9 -23 23 -21 17 1 32 7 32 12 0 14 15 34 25 34 5
0 7 -9 5 -20 -2 -11 0 -18 5 -15 5 3 11 1 14 -4 6 -10 31 -10 31 0 0 10 27 39
36 39 4 0 6 -9 4 -20 -2 -11 0 -18 5 -15 5 3 11 1 15 -4 7 -13 44 -5 65 14 9
8 19 13 22 10 3 -3 10 0 16 7 8 10 3 13 -21 14 -18 1 -26 -1 -19 -3 10 -4 10
-8 1 -19 -16 -19 -29 -18 -24 4 3 16 -11 17 -190 18 -154 0 -192 -3 -188 -13z
m193 -8 c-6 -7 -8 -14 -5 -16 2 -3 -7 -5 -20 -5 -17 0 -21 3 -15 11 6 7 8 14
5 16 -2 3 7 5 20 5 17 0 21 -3 15 -11z m90 0 c-6 -7 -7 -14 -4 -18 8 -8 -18
-3 -34 6 -18 12 -7 23 22 23 18 0 22 -3 16 -11z m86 -7 c2 -16 -12 -18 -34 -5
-7 5 -10 12 -7 17 8 13 38 5 41 -12z"/>
<path d="M1802 420 l-43 -48 20 -32 20 -33 62 63 63 62 -34 19 c-19 10 -37 18
-40 18 -3 -1 -24 -23 -48 -49z"/>
<path d="M990 457 c0 -17 72 -117 105 -145 53 -48 56 -39 3 16 -25 26 -60 67
-77 91 -17 24 -31 41 -31 38z"/>
<path d="M1979 423 c-13 -21 -43 -60 -68 -86 -24 -26 -37 -45 -29 -42 28 11
136 150 125 161 -3 3 -15 -12 -28 -33z"/>
<path d="M966 421 c-3 -5 1 -14 9 -21 17 -14 20 -30 5 -30 -5 0 -10 7 -10 16
0 23 -25 11 -26 -12 -1 -17 5 -20 40 -18 54 3 54 2 31 20 -11 8 -19 16 -17 17
2 1 0 10 -3 20 -8 18 -21 22 -29 8z"/>
<path d="M1311 295 c-11 -19 -16 -37 -12 -40 13 -8 124 -35 143 -35 14 0 18 8
18 40 0 38 -2 40 -30 40 -17 0 -46 6 -65 14 -34 14 -34 14 -54 -19z"/>
<path d="M1635 315 c-16 -8 -42 -14 -57 -15 -26 0 -28 -3 -28 -41 0 -41 0 -41
33 -35 17 3 56 13 85 22 l52 17 -19 31 c-24 37 -28 38 -66 21z"/>
<path d="M1265 199 c6 -8 134 -44 139 -38 2 2 -29 13 -69 25 -41 11 -72 17
-70 13z"/>
</g>
</svg>
